# xmcd
#
# Track frame offsets: 
#        150
#        5703
#        25178
#        40607
#        59430
#        75540
#        93950
#        110602
#        128815
#        147320
#        167918
#        194993
#        214418
#        231533
#        252523
#        260628
#
# Disc length: 3675 seconds
#
# Revision: 1
# Processed by: cddbd v1.5.2PL0 Copyright (c) Steve Scherf et al.
# Submitted via: ExactAudioCopy v1.0b3
#
DISCID=f20e5910
DTITLE=Marilyn Manson - The Golden Age Of Grotesque
DYEAR=2003
DGENRE=
TTITLE0=Thaeter
TTITLE1=This Is the New Shit
TTITLE2=mOBSCENE
TTITLE3=Doll-Dagga Buzz-Buzz Ziggety-Zag
TTITLE4=Use Your Fist And Not Your Mouth
TTITLE5=The Golden Age Of Grotesque
TTITLE6=(s)AINT
TTITLE7=Ka-Boom Ka-Boom
TTITLE8=Slutgarden
TTITLE9=♠
TTITLE10=Para-noir
TTITLE11=The Bright Young Things
TTITLE12=Better Of Two Evils
TTITLE13=Vodevil
TTITLE14=Obsequey (The Death Of Art)
TTITLE15=Tainted Love
EXTD=
EXTT0=
EXTT1=
EXTT2=
EXTT3=
EXTT4=
EXTT5=
EXTT6=
EXTT7=
EXTT8=
EXTT9=
EXTT10=
EXTT11=
EXTT12=
EXTT13=
EXTT14=
EXTT15=
PLAYORDER=
